# xmcd
#
# Track frame offsets:
#	150
#	27769
#	52543
#	73860
#	93703
#	121040
#	137518
#	151672
#	170301
#
# Disc length: 2446 seconds
#
# Revision: 11
# Processed by: cddbd v1.5.2PL0 Copyright (c) Steve Scherf et al.
# Submitted via: Jack! The Knife 20 Magnifico
#
DISCID=63098c09
DTITLE=Sodom - Agent Orange
DYEAR=1989
DGENRE=Trash Metal
TTITLE0=Agent Orange
TTITLE1=Tired And Red
TTITLE2=Incest
TTITLE3=Remember The Fallen
TTITLE4=Magic Dragon
TTITLE5=Exhibition Bout
TTITLE6=Ausgebombt
TTITLE7=Baptism Of Fire
TTITLE8=Don't Walk Away
EXTD=Harris Johns
EXTT0=Witchhunter, Blackfire, Angelripper
EXTT1=Witchhunter, Blackfire, Angelripper
EXTT2=Witchhunter, Blackfire, Angelripper
EXTT3=Witchhunter, Blackfire, Angelripper
EXTT4=Witchhunter, Blackfire, Angelripper
EXTT5=Witchhunter, Blackfire, Angelripper
EXTT6=Witchhunter, Blackfire, Angelripper
EXTT7=Witchhunter, Blackfire, Angelripper
EXTT8=Ward, P. Brabbs, M. Brabbs
PLAYORDER=
